<svg xmlns="http://www.w3.org/2000/svg" preserveAspectRatio="xMidYMid meet" data-bbox="15.7 15.8 169 169.003" viewBox="15.7 15.8 169 169.003" height="200" width="200" data-type="shape" role="presentation" aria-hidden="true">
<g>
<path d="M184.7 100.3c.1 46.6-38 84.9-85.3 84.5-46.1-.4-83.8-38-83.7-84.6.1-46.7 37.9-84.4 84.8-84.4 46.5 0 84.2 37.9 84.2 84.5zm-16.1-34c0-.1 0-.2-.1-.3-2.2-4.5-4.9-8.7-8-12.6-.2-.3-.7-.4-1-.6-1.7-.6-2.8-1.7-3.1-3.5-.3-1.7-2.2-3.6-3.9-3.9-1.9-.4-3-1.5-3.6-3.4-.2-.5-.5-1.1-.9-1.4-1.9-1.4-3.7-2.9-5.7-4.1-2.2-1.4-4.5-2.7-6.9-4.2 0 3.1-1.1 4.9-3.1 5.5-1.9.6-4-.1-5.1-1.7-.8-1.1-1.2-2.4-.6-3.7.5-1.1 1.3-2.1 2-3.4-.6 0-1.4-.2-1.8.1-3.1 2.5-6.7 1.5-7.8-2.4-.1-.3-.5-.7-.8-.8-1.7-.4-3.4-.8-5.1-1.1-.3 4.1-2.1 6-5.1 5.7-3-.4-4.4-2.8-3.7-6.6h-6.6c.8 3.5-.5 6.1-3.5 6.6-1.3.2-2.4-.1-3.4-.9-1.7-1.2-2-3-1.7-5l-6 1.2c0 2.2-.9 3.7-2.8 4.4-2.4.9-4.3 0-5.7-1.9l-2 .8c2.8 1.8 3.7 3.8 2.7 6.2-.8 1.9-2.9 3.1-4.8 2.7-1.5-.2-2.8-.9-3.3-2.3-.5-1.2-.5-2.6-.7-4-1.4.7-2.9 1.6-4.4 2.4-.9.5-1.7 1.1-2.4 2-.6.8-1.5 1.5-2.5 1.7-1.5.3-2.5 1.1-3.6 2-.3.2-.5.7-.5 1 0 3-2.8 5.1-5.4 4.6-.9-.2-2.3 1.3-2.2 2.3.4 2.9-1.6 5.2-4.5 5.3-.3 0-.7-.1-.9.1-.8 1.1-1.5 2.2-2.1 3.4-.6 1-.9 2.3-1.7 2.9-1.2.9-1.9 2-2.6 3.2-.7 1.3-1.4 2.6-2.2 4 3.5-.6 5.5.4 6.3 2.9.7 2.2-.3 4.4-2.4 5.4-2.3 1.1-4.4.3-6.3-2.5-.9 1.6-.9 1.5.2 2.9.5.7 1 1.6 1.1 2.4.4 2.8-1.3 4.7-4.7 5.2-.1.2-.2.5-.2.7-.3 1.7-.6 3.4-1 5.1 4.4.2 6.3 2 5.9 5.2-.4 2.9-2.8 4.2-6.6 3.5v6.6c3.6-.8 6.1.5 6.6 3.3.5 3.2-1.3 5-5.7 5.4l1.2 5.8c2.1.2 3.5 1.1 4.2 3 .6 1.6.4 3.3-.8 4.6-.9.9-.6 1.6-.1 2.4 2.4-2.4 4.4-3 6.5-1.8 1.8 1 2.6 3.1 2.1 5.1-.7 2.3-2.4 3.4-5.5 3.3.2.4.3.7.5 1 2.5 3.8 4.9 7.5 7.4 11.3.5.7 1 1.1 1.9 1.3 1.9.4 3.2 2 3.4 4 .1 1.3 2.1 3.2 3.4 3.4 1.8.2 3.2 1.1 3.7 2.8.4 1.3 1.3 2.1 2.3 2.8.9.6 1.7 1.3 2.6 1.8 2.9 1.8 5.8 3.5 8.8 5.3.5-3.2 1.6-4.7 3.7-5.2 1.8-.4 3.7.3 4.7 1.8 1.4 2.3 1 4.4-.9 6.3.8.6 1.4.6 2.2 0 2.3-1.6 5.4-.6 6.6 2 .2.3.4.8.7.9 1.8.4 3.6.7 5.4 1.1.6-3.2 2.3-4.8 4.9-4.7s4 1.8 4.4 5.4h5.7c.5-3.7 1.8-5.2 4.3-5.4s4.1 1.2 5 4.4c1.7-.4 3.4-.7 5.1-1.1.5-.1 1-.5 1.2-1 1.3-2.2 3.9-3 6.1-1.9 1.1.5 1.1.5 2.2-.2-1.4-1.7-1.8-3.5-.7-5.5 1-1.7 2.6-2.5 4.5-2.2 2.4.3 3.6 2 4.1 4.6 3.7-2.4 7.2-4.6 10.6-7 1.4-1 2.5-2.4 3.8-3.5.8-.7 1.9-1.1 2.7-1.9 1.6-1.6 3.5-3 4.5-5.1.3-.6 1-1 1.5-1.5.3-.3.7-.5.9-.8 3.1-3.8 5.9-7.9 8.2-12.3.1-.2.2-.5.4-.8-2.4-.4-3.9-1.7-4.2-4.1-.2-1.8.5-3.3 2-4.3 2-1.2 3.9-.9 5.7.5.5-.8.6-1.4.2-2.3-1.1-2.2-.3-4.7 1.9-5.9.3-.2.7-.3.8-.6.5-1.9.9-3.9 1.3-5.8-2.7-.5-4.4-2.1-4.4-4.4 0-.9.4-2 .8-2.8 1-1.6 2.7-2 4.4-2v-5.8c-3 0-4.9-1.4-5.2-3.9-.1-.9.1-2 .5-2.8.7-1.6 2.2-2.2 4-2.5-.3-1.7-.7-3.3-.9-4.9-.1-.7-.4-1.1-1.1-1.4-2.5-1.2-3.3-4.1-1.8-6.5.5-.8.4-1.4-.1-2.1-2.1 1.8-4 2-5.9.9-1.6-1-2.4-2.9-2-4.8.3-1.9 1.7-3 4.5-3.4z"/>
<path d="M44 85.9c0-2.6 1.9-4.5 4.5-4.5 2.5 0 4.5 2 4.5 4.5s-2 4.6-4.5 4.6c-2.5-.1-4.5-2.1-4.5-4.6z"/>
<path d="M133.8 85.8c0-2.6 2-4.5 4.6-4.5 2.5 0 4.5 2 4.5 4.6 0 2.5-2.1 4.5-4.6 4.5-2.6 0-4.5-2-4.5-4.6z"/>
<path d="M59 85.9c0-2.6 1.9-4.5 4.5-4.5s4.6 2 4.6 4.5-2.1 4.6-4.6 4.5c-2.6 0-4.5-1.9-4.5-4.5z"/>
<path d="M153.3 81.3c2.6 0 4.6 1.9 4.6 4.5 0 2.5-2 4.6-4.5 4.6-2.6 0-4.5-1.9-4.6-4.5 0-2.6 1.9-4.5 4.5-4.6z"/>
<path d="M83 85.9c0 2.5-2 4.5-4.5 4.5s-4.6-2-4.6-4.6c0-2.5 2-4.5 4.6-4.5 2.6.1 4.5 2 4.5 4.6z"/>
<path d="M172.8 85.9c0 2.6-1.9 4.6-4.5 4.6-2.5 0-4.6-2.1-4.5-4.6 0-2.5 2-4.5 4.5-4.5 2.5-.1 4.5 1.9 4.5 4.5z"/>
<path d="M86 29c2.6 0 4.5 2 4.5 4.6 0 2.5-2 4.5-4.5 4.5s-4.6-2.1-4.6-4.6S83.5 29 86 29z"/>
<path d="M90.5 123.3c0 2.5-2.1 4.6-4.6 4.5s-4.5-2.2-4.5-4.7 2.1-4.4 4.6-4.4c2.5.1 4.5 2.1 4.5 4.6z"/>
<path d="M38.1 85.9c0 2.5-2.1 4.6-4.6 4.5-2.5 0-4.5-2.1-4.4-4.7 0-2.5 2-4.4 4.5-4.4 2.5.1 4.5 2.1 4.5 4.6z"/>
<path d="M123.3 81.3c2.6 0 4.6 2 4.6 4.5s-2 4.6-4.5 4.6-4.5-2-4.5-4.5c-.1-2.5 1.9-4.5 4.4-4.6z"/>
<path d="M130.7 67.9c-2.5-.1-4.5-2.1-4.4-4.7.1-2.4 2.1-4.4 4.6-4.4s4.5 2.1 4.5 4.6c-.1 2.6-2.1 4.6-4.7 4.5z"/>
<path d="M86 67.9c-2.5 0-4.6-2-4.6-4.5 0-2.4 2-4.5 4.5-4.5s4.6 1.9 4.6 4.4c0 2.6-2 4.6-4.5 4.6z"/>
<path d="M40.9 67.9c-2.5 0-4.5-2.1-4.4-4.7.1-2.4 2.1-4.4 4.6-4.4s4.5 2.1 4.5 4.6c-.1 2.6-2.1 4.6-4.7 4.5z"/>
<path d="M63.5 105.4c-2.6 0-4.5-2-4.5-4.5s2-4.6 4.5-4.5c2.5 0 4.6 2.1 4.5 4.6.1 2.4-2 4.4-4.5 4.4z"/>
<path d="M148.8 100.8c0-2.5 2.1-4.6 4.6-4.5s4.6 2.2 4.5 4.6c-.1 2.5-2.1 4.5-4.6 4.5-2.6 0-4.5-2-4.5-4.6z"/>
<path d="M59 40.9c0-2.5 2-4.5 4.5-4.5s4.6 2.1 4.6 4.5c0 2.5-2.2 4.6-4.6 4.5-2.6.1-4.5-1.9-4.5-4.5z"/>
<path d="M126.3 153.1c0-2.5 2.1-4.5 4.6-4.5 2.5.1 4.4 2.1 4.4 4.6s-2.1 4.5-4.6 4.5c-2.4 0-4.4-2-4.4-4.6z"/>
<path d="M63.4 126.3c2.5 0 4.6 2 4.6 4.5s-2.1 4.6-4.6 4.6-4.5-2-4.5-4.4c.1-2.7 2-4.7 4.5-4.7z"/>
<path d="M153.3 126.3c2.5 0 4.6 2 4.6 4.5s-2.1 4.6-4.6 4.6-4.5-2-4.5-4.5c0-2.7 1.9-4.6 4.5-4.6z"/>
<path d="M90.5 153.2c0 2.5-2 4.5-4.6 4.5-2.5 0-4.5-2-4.5-4.5s2.1-4.6 4.6-4.6c2.5.1 4.5 2.1 4.5 4.6z"/>
<path d="M41 73.9c2.6 0 4.6 1.9 4.6 4.5 0 2.5-2.1 4.6-4.6 4.5-2.5 0-4.5-2-4.5-4.5s1.9-4.5 4.5-4.5z"/>
<path d="M148.8 70.9c0-2.6 2-4.5 4.6-4.5 2.5 0 4.5 2.1 4.5 4.5 0 2.5-2.1 4.6-4.6 4.6-2.5-.1-4.5-2.1-4.5-4.6z"/>
<path d="M130.8 73.9c2.6 0 4.6 1.9 4.6 4.5 0 2.5-2.1 4.6-4.6 4.5-2.5 0-4.5-2-4.5-4.5s2-4.5 4.5-4.5z"/>
<path d="M59 70.9c0-2.6 2-4.5 4.5-4.5s4.5 2 4.5 4.5-2.1 4.6-4.6 4.6c-2.4 0-4.4-2-4.4-4.6z"/>
<path d="M59 160.7c0-2.6 1.9-4.6 4.5-4.6 2.5 0 4.6 2.1 4.6 4.6s-2.1 4.5-4.6 4.5-4.5-1.9-4.5-4.5z"/>
<path d="M88.9 85.9c0-2.6 2-4.6 4.5-4.5 2.5 0 4.5 2 4.5 4.5s-2 4.6-4.5 4.6c-2.4 0-4.4-2.1-4.5-4.6z"/>
<path d="M120.4 153.2c0 2.5-2 4.6-4.5 4.6s-4.6-2.1-4.6-4.6c0-2.4 2.1-4.5 4.5-4.5 2.5-.1 4.6 1.9 4.6 4.5z"/>
<path d="M115.9 67.9c-2.5 0-4.6-2.1-4.5-4.6 0-2.4 2.1-4.5 4.5-4.5 2.5 0 4.5 2 4.5 4.5v.1c0 2.6-2 4.5-4.5 4.5z"/>
<path d="M41 112.8c-2.6 0-4.5-2-4.5-4.5s2.1-4.5 4.6-4.5 4.5 2 4.5 4.5c0 2.6-2 4.5-4.6 4.5z"/>
<path d="M130.8 112.8c-2.6 0-4.5-2-4.5-4.6 0-2.5 2-4.5 4.5-4.5s4.6 2 4.6 4.5c0 2.7-2 4.7-4.6 4.6z"/>
<path d="M172.8 115.8c0 2.6-2 4.5-4.5 4.5s-4.5-2-4.5-4.5 2-4.6 4.5-4.6c2.5.1 4.5 2.1 4.5 4.6z"/>
<path d="M148.8 115.7c0-2.5 2-4.5 4.5-4.5s4.6 2.1 4.6 4.6-2.1 4.5-4.6 4.5c-2.6 0-4.5-2-4.5-4.6z"/>
<path d="M48.6 105.4c-2.6 0-4.6-1.9-4.6-4.5 0-2.5 2-4.6 4.5-4.6 2.4 0 4.5 2 4.5 4.5.1 2.5-1.9 4.6-4.4 4.6z"/>
<path d="M83 115.8c0 2.6-1.9 4.6-4.5 4.6-2.5 0-4.6-2-4.6-4.5s2.1-4.5 4.6-4.5c2.5-.1 4.5 1.9 4.5 4.4z"/>
<path d="M138.2 105.4c-2.6-.1-4.4-2.1-4.4-4.8.1-2.4 2.2-4.4 4.6-4.3 2.5.1 4.5 2.2 4.4 4.7 0 2.5-2.1 4.5-4.6 4.4z"/>
<path d="M133.8 160.6c0-2.5 2-4.5 4.5-4.5s4.6 2 4.6 4.5-2.1 4.6-4.6 4.5c-2.5.1-4.5-1.9-4.5-4.5z"/>
<path d="M100.9 163.7c2.6 0 4.6 2 4.6 4.5s-2.1 4.5-4.6 4.5-4.5-2-4.5-4.5 2-4.5 4.5-4.5z"/>
<path d="M59 115.7c0-2.5 2-4.5 4.5-4.4 2.5 0 4.6 2.1 4.6 4.6s-2.1 4.5-4.6 4.5c-2.6-.1-4.5-2.1-4.5-4.7z"/>
<path d="M100.9 73.9c2.6 0 4.6 2 4.6 4.5s-2.1 4.6-4.6 4.5c-2.5 0-4.5-2-4.5-4.5s1.9-4.5 4.5-4.5z"/>
<path d="M100.9 112.8c-2.6 0-4.5-2-4.5-4.6 0-2.5 2-4.5 4.5-4.4 2.5 0 4.6 2.1 4.5 4.6.1 2.5-2 4.5-4.5 4.4z"/>
<path d="M133.8 70.9c0-2.6 2-4.5 4.5-4.5s4.5 2 4.5 4.5-2 4.6-4.5 4.6c-2.5-.1-4.5-2.1-4.5-4.6z"/>
<path d="M48.5 66.4c2.5 0 4.5 2 4.6 4.5v.1c0 2.5-2.1 4.6-4.6 4.5-2.5 0-4.5-2-4.5-4.5 0-2.6 2-4.6 4.5-4.6z"/>
<path d="M86 112.8c-2.6 0-4.6-2-4.6-4.5s2.1-4.6 4.6-4.5c2.5 0 4.5 2 4.5 4.5s-1.9 4.5-4.5 4.5z"/>
<path d="M96.4 33.5c0-2.6 2-4.5 4.5-4.5s4.5 2 4.5 4.5-2 4.6-4.5 4.6c-2.4 0-4.5-2.1-4.5-4.6z"/>
<path d="M41.1 118.8c2.5 0 4.5 2 4.5 4.6 0 2.4-2.1 4.5-4.5 4.5-2.5 0-4.6-2.1-4.6-4.6s2-4.5 4.6-4.5z"/>
<path d="M101 118.8c2.5 0 4.5 2 4.5 4.5s-2.1 4.6-4.5 4.6c-2.5 0-4.5-2.1-4.5-4.6-.1-2.6 1.9-4.5 4.5-4.5z"/>
<path d="M120.4 123.2c0 2.5-2 4.6-4.5 4.6s-4.6-2.1-4.6-4.5 2-4.5 4.5-4.5c2.6 0 4.6 1.9 4.6 4.4z"/>
<path d="M130.9 118.8c2.5 0 4.5 2 4.5 4.5v.1c0 2.4-2.1 4.5-4.5 4.5-2.5 0-4.5-2.1-4.5-4.6-.1-2.6 1.9-4.5 4.5-4.5z"/>
<path d="M56 157.7c-2.5 0-4.5-2.1-4.5-4.6s2-4.5 4.5-4.5 4.6 2.1 4.6 4.6c-.1 2.5-2.1 4.6-4.6 4.5z"/>
<path d="M55.9 67.9c-2.5 0-4.5-2.1-4.4-4.6 0-2.5 2.1-4.5 4.5-4.4 2.5 0 4.6 2.2 4.5 4.6 0 2.5-2.1 4.5-4.6 4.4z"/>
<path d="M96.4 153.2c0-2.5 2-4.5 4.5-4.5h.1c2.4.1 4.5 2.1 4.5 4.5 0 2.5-2.1 4.5-4.6 4.5s-4.5-2-4.5-4.5z"/>
<path d="M96.4 63.4c0-2.5 2-4.6 4.5-4.6 2.4 0 4.5 2 4.5 4.5s-2 4.6-4.5 4.6c-2.5.1-4.5-1.9-4.5-4.5z"/>
<path d="M145.8 67.9c-2.5 0-4.5-2-4.5-4.6 0-2.5 2-4.5 4.5-4.5s4.6 2.1 4.6 4.5c0 2.6-2.1 4.6-4.6 4.6z"/>
<path d="M115.9 29c2.6 0 4.6 2 4.5 4.5 0 2.5-2.1 4.6-4.6 4.6s-4.6-2.1-4.5-4.6 2.1-4.5 4.6-4.5z"/>
<path d="M85.9 73.9c2.6 0 4.6 1.9 4.6 4.5 0 2.5-2 4.6-4.5 4.6s-4.6-2.1-4.5-4.6c0-2.5 1.9-4.5 4.4-4.5z"/>
<path d="M86 163.7c2.6 0 4.5 2 4.5 4.5s-2.1 4.6-4.6 4.5c-2.5 0-4.5-2.1-4.5-4.5 0-2.5 2-4.5 4.6-4.5z"/>
<path d="M112.9 85.9c0 2.6-2 4.6-4.5 4.6s-4.5-2-4.5-4.5c0-2.6 1.9-4.6 4.5-4.6 2.6-.1 4.5 1.9 4.5 4.5z"/>
<path d="M145.7 157.7c-2.5 0-4.5-2.1-4.4-4.6s2.1-4.5 4.5-4.4c2.5 0 4.6 2.2 4.5 4.6 0 2.5-2.1 4.5-4.6 4.4z"/>
<path d="M56 112.8c-2.6 0-4.5-1.9-4.5-4.5 0-2.5 2-4.5 4.5-4.5h.1c2.4 0 4.5 2 4.5 4.5s-2.1 4.5-4.6 4.5z"/>
<path d="M63.5 60.4c-2.6 0-4.5-1.9-4.5-4.5 0-2.5 2-4.5 4.5-4.5s4.6 2.1 4.6 4.5c0 2.5-2.1 4.5-4.6 4.5z"/>
<path d="M145.8 112.8c-2.6 0-4.5-1.9-4.5-4.5 0-2.5 2-4.5 4.5-4.5h.1c2.4 0 4.5 2 4.5 4.5s-2 4.5-4.6 4.5z"/>
<path d="M56 118.8c2.5 0 4.5 2 4.5 4.5s-2.1 4.6-4.5 4.6c-2.5 0-4.5-2-4.5-4.6 0-2.6 2-4.5 4.5-4.5z"/>
<path d="M83 71c0 2.5-2 4.4-4.5 4.4s-4.6-2.1-4.5-4.6c0-2.5 2.1-4.5 4.6-4.5 2.5.1 4.4 2.1 4.4 4.7z"/>
<path d="M127.9 70.9c0 2.5-2.1 4.6-4.6 4.5-2.4 0-4.5-2.1-4.5-4.5 0-2.5 2-4.6 4.5-4.6s4.6 2 4.6 4.6z"/>
<path d="M153.3 60.4c-2.6 0-4.5-1.9-4.5-4.5 0-2.5 1.9-4.5 4.4-4.5s4.6 2 4.6 4.5c.1 2.5-1.9 4.5-4.5 4.5z"/>
<path d="M145.8 118.8c2.5 0 4.6 2.1 4.5 4.6s-2.1 4.5-4.5 4.5c-2.5 0-4.5-2-4.6-4.5.1-2.6 2.1-4.6 4.6-4.6z"/>
<path d="M126.3 93.4c0-2.5 2-4.5 4.5-4.5s4.6 2 4.5 4.5c0 2.4-2 4.5-4.5 4.5-2.3.1-4.5-2-4.5-4.5z"/>
<path d="M59 145.6c0-2.5 2-4.5 4.5-4.4 2.5 0 4.6 2.1 4.6 4.6s-2.1 4.5-4.8 4.4c-2.5 0-4.3-2-4.3-4.6z"/>
<path d="M153.3 150.2c-2.6 0-4.5-1.9-4.5-4.6 0-2.5 2-4.5 4.5-4.5s4.6 2.1 4.6 4.5c0 2.6-2.1 4.6-4.6 4.6z"/>
<path d="M127.9 160.7c0 2.5-2 4.6-4.5 4.6s-4.5-2.1-4.5-4.6 2-4.5 4.4-4.5c2.5-.1 4.6 1.9 4.6 4.5z"/>
<path d="M36.5 93.3c0-2.5 2.1-4.5 4.6-4.4 2.5 0 4.5 2.1 4.4 4.5 0 2.5-2.1 4.6-4.6 4.5-2.4 0-4.4-2.1-4.4-4.6z"/>
<path d="M83 160.7c0 2.6-1.9 4.6-4.5 4.6-2.5 0-4.6-2.1-4.6-4.6s2.1-4.5 4.6-4.5 4.5 1.9 4.5 4.5z"/>
<path d="M83 130.8c0 2.5-2 4.5-4.4 4.5-2.5 0-4.6-2-4.6-4.5s2-4.5 4.5-4.5 4.5 1.9 4.5 4.5z"/>
<path d="M88.9 130.8c0-2.5 2-4.5 4.6-4.5 2.5 0 4.5 2 4.5 4.5s-2.1 4.6-4.5 4.6c-2.5 0-4.6-2.1-4.6-4.6z"/>
<path d="M93.6 36.5c2.5.1 4.4 2.2 4.4 4.6-.1 2.5-2.2 4.6-4.7 4.5-2.6-.1-4.5-2.2-4.4-4.8.1-2.5 2.2-4.4 4.7-4.3z"/>
<path d="M83 145.7c0 2.6-1.9 4.5-4.5 4.5-2.5 0-4.5-1.9-4.5-4.4s2-4.6 4.5-4.6 4.5 2 4.5 4.5z"/>
<path d="M133.8 115.7c0-2.5 2-4.5 4.5-4.5s4.5 2 4.5 4.6c0 2.5-2.1 4.5-4.6 4.5-2.5 0-4.4-2-4.4-4.6z"/>
<path d="M44 115.7c0-2.5 2-4.4 4.5-4.4s4.5 2.1 4.5 4.6-2.1 4.5-4.6 4.5c-2.5-.1-4.4-2.1-4.4-4.7z"/>
<path d="M75.5 153.2c0 2.6-2 4.5-4.5 4.5s-4.6-2.1-4.5-4.6 2.1-4.5 4.5-4.5c2.5.1 4.5 2.1 4.5 4.6z"/>
<path d="M83 41c0 2.6-2 4.6-4.5 4.6S74 43.5 74 41s2-4.5 4.5-4.5C81 36.4 83 38.4 83 41z"/>
<path d="M88.9 160.7c0-2.5 2-4.5 4.5-4.5s4.6 2.1 4.5 4.6c0 2.4-2.1 4.5-4.5 4.5s-4.5-2.1-4.5-4.6z"/>
<path d="M115.9 112.8c-2.5 0-4.6-2-4.6-4.5s2.1-4.6 4.6-4.5c2.5 0 4.5 2 4.5 4.5v.1c0 2.5-2 4.4-4.5 4.4z"/>
<path d="M83 55.9c0 2.6-1.9 4.5-4.5 4.5-2.5 0-4.5-1.9-4.5-4.4s2-4.6 4.5-4.6 4.5 2 4.5 4.5z"/>
<path d="M100.9 88.9c2.5 0 4.6 2 4.6 4.5s-2.1 4.6-4.6 4.5c-2.5 0-4.4-2.1-4.5-4.5 0-2.5 2-4.5 4.5-4.5z"/>
<path d="M88.9 70.9c0-2.5 2-4.5 4.5-4.5h.1c2.4 0 4.5 2.1 4.5 4.5 0 2.5-2.1 4.6-4.5 4.6-2.5-.1-4.6-2.1-4.6-4.6z"/>
<path d="M165.3 63.4c0 2.6-2 4.5-4.5 4.5s-4.6-2.1-4.5-4.6c0-2.5 2.1-4.5 4.5-4.5 2.5 0 4.5 2 4.5 4.6 0-.1 0 0 0 0z"/>
<path d="M90.5 93.4c0 2.5-2.1 4.6-4.6 4.5-2.5 0-4.5-2.1-4.5-4.6s2.1-4.4 4.5-4.4c2.6 0 4.6 2 4.6 4.5z"/>
<path d="M75.5 63.3c0 2.6-1.9 4.6-4.5 4.6-2.5 0-4.6-2-4.6-4.5 0-2.4 2-4.5 4.5-4.5 2.5-.1 4.6 1.9 4.6 4.4z"/>
<path d="M138.4 60.4c-2.6 0-4.5-1.9-4.5-4.5 0-2.5 2-4.6 4.5-4.5 2.5 0 4.5 2.1 4.5 4.6-.1 2.5-2 4.4-4.5 4.4z"/>
<path d="M44 130.8c0-2.6 2-4.6 4.5-4.5 2.5 0 4.5 2 4.5 4.6 0 2.5-2 4.5-4.5 4.5-2.4 0-4.5-2.1-4.5-4.6z"/>
<path d="M123.4 126.3c2.5 0 4.5 2 4.5 4.4v.1c0 2.5-2.1 4.6-4.6 4.5-2.5 0-4.5-2.1-4.5-4.5 0-2.5 2-4.5 4.6-4.5z"/>
<path d="M133.8 130.7c0-2.5 2-4.5 4.4-4.5 2.5 0 4.6 2 4.6 4.5s-2.1 4.6-4.6 4.5c-2.4.1-4.4-1.9-4.4-4.5z"/>
<path d="M48.5 150.2c-2.6 0-4.5-2-4.5-4.6 0-2.5 2-4.4 4.5-4.5 2.5 0 4.5 2 4.5 4.5.1 2.7-1.9 4.6-4.5 4.6z"/>
<path d="M138.3 150.2c-2.6 0-4.4-2-4.4-4.6 0-2.4 2.1-4.4 4.5-4.4 2.5 0 4.5 2.1 4.5 4.6-.1 2.5-2.1 4.5-4.6 4.4z"/>
<path d="M133.8 41c0-2.6 2-4.5 4.5-4.5s4.5 2 4.5 4.5-2 4.6-4.5 4.6c-2.5-.1-4.5-2.1-4.5-4.6z"/>
<path d="M127.9 40.9c0 2.5-2 4.6-4.5 4.6-2.4 0-4.5-2-4.5-4.5 0-2.6 1.9-4.6 4.5-4.6 2.4 0 4.4 2 4.5 4.5z"/>
<path d="M112.9 70.9c0 2.6-2 4.6-4.5 4.5-2.5 0-4.5-2.1-4.5-4.6s2-4.5 4.5-4.5c2.5.1 4.5 2 4.5 4.6z"/>
<path d="M112.9 160.8c0 2.5-2 4.5-4.5 4.5s-4.5-2-4.5-4.6 2-4.5 4.5-4.5c2.6 0 4.5 2 4.5 4.6z"/>
<path d="M145.9 73.9c2.5 0 4.5 2 4.5 4.5s-2.1 4.6-4.6 4.6-4.5-2-4.5-4.5v-.1c0-2.6 2-4.5 4.6-4.5z"/>
<path d="M115.9 73.9c2.6 0 4.5 2 4.5 4.5s-2 4.5-4.5 4.5-4.6-2-4.6-4.5 2.1-4.5 4.6-4.5z"/>
<path d="M115.9 163.7c2.6 0 4.5 2 4.5 4.5s-2 4.5-4.5 4.5-4.6-2-4.6-4.5 2.1-4.5 4.6-4.5z"/>
<path d="M56 73.9c2.5 0 4.6 2.1 4.5 4.5-.1 2.5-2.1 4.5-4.5 4.5-2.5 0-4.5-2-4.6-4.5v-.1c.1-2.5 2-4.4 4.6-4.4z"/>
<path d="M127.9 115.8c0 2.5-2 4.5-4.5 4.6h-.1c-2.5 0-4.5-2-4.5-4.5s2-4.6 4.5-4.6c2.6 0 4.6 2 4.6 4.5z"/>
<path d="M48.5 60.4c-2.6 0-4.5-2-4.5-4.5s2.1-4.5 4.6-4.5c2.5.1 4.4 2.1 4.5 4.5 0 2.6-2 4.5-4.6 4.5z"/>
<path d="M38.1 115.8c0 2.5-2 4.5-4.5 4.5h-.1c-2.5 0-4.5-2-4.5-4.5s2.1-4.6 4.6-4.5c2.5 0 4.5 2.1 4.5 4.5z"/>
<path d="M130.9 133.8c2.6 0 4.5 2 4.5 4.6 0 2.5-2.1 4.5-4.6 4.4-2.5 0-4.4-2-4.4-4.5-.1-2.6 1.9-4.5 4.5-4.5z"/>
<path d="M93.5 150.2c-2.6 0-4.5-2-4.5-4.5s2.1-4.5 4.5-4.5c2.5 0 4.6 2.1 4.5 4.6 0 2.5-2.1 4.4-4.5 4.4z"/>
<path d="M130.9 44c2.6 0 4.5 2 4.5 4.5s-2 4.5-4.6 4.4c-2.5 0-4.5-2-4.4-4.5-.1-2.5 1.9-4.4 4.5-4.4z"/>
<path d="M86.1 133.8c2.6 0 4.5 2 4.5 4.6 0 2.5-2 4.4-4.5 4.4s-4.6-2-4.5-4.5c-.1-2.6 1.9-4.5 4.5-4.5z"/>
<path d="M41 142.8c-2.5 0-4.5-2-4.5-4.6 0-2.5 2-4.4 4.5-4.4 2.6 0 4.6 2 4.6 4.5s-2 4.5-4.6 4.5z"/>
<path d="M71 118.8c2.6 0 4.5 1.9 4.5 4.5 0 2.5-2 4.6-4.5 4.6-2.4 0-4.5-2-4.5-4.5-.1-2.5 1.9-4.6 4.5-4.6z"/>
<path d="M172.8 100.8c0 2.6-1.9 4.6-4.5 4.5-2.5 0-4.6-2-4.5-4.5 0-2.5 2.1-4.6 4.6-4.5 2.4 0 4.4 2.1 4.4 4.5z"/>
<path d="M86.1 44c2.6 0 4.5 2 4.4 4.6 0 2.5-2 4.4-4.5 4.4s-4.6-2-4.5-4.5c0-2.6 2-4.6 4.6-4.5z"/>
<path d="M165.3 123.3c0 2.5-2 4.6-4.5 4.6s-4.6-2.1-4.6-4.6 2-4.5 4.5-4.5c2.7 0 4.6 1.9 4.6 4.5z"/>
<path d="M93.5 60.4c-2.6 0-4.5-1.9-4.5-4.5 0-2.5 2-4.5 4.5-4.5s4.6 2.1 4.6 4.6c-.1 2.4-2.1 4.4-4.6 4.4z"/>
<path d="M83 100.9c0 2.5-1.9 4.5-4.4 4.5s-4.6-2-4.6-4.5 2.1-4.6 4.5-4.6c2.5 0 4.5 2.1 4.5 4.6z"/>
<path d="M165.3 78.4c0 2.5-2 4.6-4.5 4.5-2.5 0-4.5-2-4.5-4.5s2-4.5 4.5-4.5c2.6 0 4.5 1.9 4.5 4.5z"/>
<path d="M160.8 112.8c-2.5 0-4.5-2-4.5-4.5s2-4.6 4.6-4.6c2.5 0 4.5 2 4.5 4.6-.1 2.6-2 4.6-4.6 4.5z"/>
<path d="M112.9 115.8c0 2.5-2 4.5-4.5 4.5-2.6 0-4.5-2-4.5-4.5s2-4.5 4.5-4.5 4.5 2 4.5 4.5z"/>
<path d="M71.2 73.9c2.5 0 4.4 2 4.4 4.6 0 2.5-2.1 4.5-4.6 4.5-2.5-.1-4.5-2.1-4.5-4.5 0-2.7 2-4.6 4.7-4.6z"/>
<path d="M71 112.8c-2.6 0-4.6-2-4.6-4.5s2.1-4.5 4.6-4.5 4.4 2 4.5 4.5c0 2.6-1.9 4.5-4.5 4.5z"/>
<path d="M115.9 88.9c2.6 0 4.6 2 4.6 4.5s-2 4.6-4.5 4.6-4.6-2.1-4.5-4.6c-.1-2.5 1.9-4.5 4.4-4.5z"/>
<path d="M127.9 100.8c0 2.6-2 4.6-4.5 4.6s-4.5-2-4.5-4.4c0-2.5 2-4.6 4.5-4.6 2.4-.1 4.5 2 4.5 4.4z"/>
<path d="M93.5 105.4c-2.5 0-4.5-1.9-4.5-4.4 0-2.6 2-4.7 4.5-4.7 2.4 0 4.5 2.1 4.5 4.5 0 2.5-2 4.6-4.5 4.6z"/>
<path d="M38.1 100.9c0 2.5-2.1 4.5-4.6 4.5s-4.4-2-4.4-4.5 2-4.5 4.5-4.5c2.4-.1 4.5 2 4.5 4.5z"/>
<path d="M112.9 100.9c0 2.6-2 4.5-4.5 4.5-2.6 0-4.5-2-4.5-4.6 0-2.5 2-4.5 4.5-4.5s4.5 2 4.5 4.6z"/>
<path d="M100.9 52.9c-2.6 0-4.5-2-4.5-4.5s1.9-4.4 4.5-4.5c2.6 0 4.6 1.9 4.6 4.5s-2 4.5-4.6 4.5z"/>
<path d="M141.3 93.3c0-2.5 2-4.5 4.6-4.5 2.5 0 4.5 2 4.5 4.5s-2.1 4.6-4.6 4.6-4.5-2-4.5-4.6z"/>
<path d="M112.9 130.9c0 2.5-2 4.5-4.5 4.5-2.6 0-4.6-2.1-4.5-4.7 0-2.5 2.1-4.4 4.5-4.4 2.6 0 4.5 2 4.5 4.6z"/>
<path d="M123.4 150.2c-2.6 0-4.6-2-4.5-4.5 0-2.5 2-4.5 4.5-4.5s4.6 2.1 4.5 4.6c0 2.5-2 4.4-4.5 4.4z"/>
<path d="M101 142.8c-2.6 0-4.6-1.9-4.6-4.5 0-2.5 1.9-4.5 4.4-4.5 2.6 0 4.6 1.9 4.6 4.4.1 2.5-1.9 4.5-4.4 4.6z"/>
<path d="M123.4 60.4c-2.6 0-4.5-2-4.5-4.5s2.1-4.5 4.5-4.5c2.5 0 4.5 2.1 4.5 4.6s-2 4.4-4.5 4.4z"/>
<path d="M51.5 93.3c0-2.5 2-4.5 4.6-4.5 2.5 0 4.5 2 4.5 4.5s-2.1 4.6-4.6 4.6-4.5-2-4.5-4.6z"/>
<path d="M112.9 41c0 2.5-1.9 4.5-4.4 4.5s-4.6-2-4.6-4.6c0-2.5 2-4.4 4.5-4.4 2.6-.1 4.5 1.9 4.5 4.5z"/>
<path d="M71 52.9c-2.6 0-4.6-2-4.6-4.5s2-4.5 4.5-4.5c2.6 0 4.6 1.8 4.6 4.4 0 2.7-1.9 4.6-4.5 4.6z"/>
<path d="M145.8 52.9c-2.6 0-4.5-2-4.5-4.6s2-4.4 4.6-4.4c2.5 0 4.5 2.1 4.5 4.5 0 2.6-2.1 4.6-4.6 4.5z"/>
<path d="M56 142.8c-2.6 0-4.6-1.9-4.6-4.5 0-2.5 1.9-4.5 4.4-4.5 2.6 0 4.6 1.9 4.7 4.4.1 2.5-1.9 4.5-4.5 4.6z"/>
<path d="M71 142.8c-2.6 0-4.6-2-4.6-4.5s2-4.5 4.6-4.5c2.5 0 4.5 1.9 4.5 4.4 0 2.6-1.9 4.6-4.5 4.6z"/>
<path d="M56 53c-2.6 0-4.5-2-4.5-4.6s2-4.5 4.6-4.4c2.5 0 4.5 2 4.5 4.5S58.5 53 56 53z"/>
<path d="M145.9 142.8c-2.6 0-4.6-1.9-4.6-4.5 0-2.5 1.9-4.5 4.4-4.5 2.6 0 4.6 1.9 4.6 4.4.1 2.5-1.9 4.6-4.4 4.6z"/>
<path d="M160.9 133.8c2.6 0 4.5 2 4.5 4.6s-2 4.5-4.6 4.4c-2.5 0-4.5-2-4.5-4.5 0-2.6 2-4.5 4.6-4.5z"/>
<path d="M112.9 55.9c0 2.6-1.9 4.5-4.4 4.5-2.6 0-4.6-1.9-4.6-4.5 0-2.5 2-4.6 4.6-4.5 2.5 0 4.4 2 4.4 4.5z"/>
<path d="M71 88.9c2.6 0 4.5 1.9 4.5 4.5 0 2.5-2 4.6-4.5 4.6s-4.6-2.1-4.5-4.6c0-2.5 2-4.5 4.5-4.5z"/>
<path d="M108.4 150.2c-2.5 0-4.5-1.9-4.5-4.4 0-2.6 2-4.6 4.5-4.6s4.5 2 4.5 4.6c0 2.6-1.9 4.4-4.5 4.4z"/>
<path d="M116 133.8c2.5 0 4.5 2 4.5 4.6 0 2.5-2 4.4-4.5 4.4s-4.6-2-4.5-4.5c-.1-2.6 1.9-4.5 4.5-4.5z"/>
<path d="M165.3 93.3c0 2.6-1.9 4.6-4.5 4.6-2.5 0-4.6-2.1-4.6-4.5 0-2.5 2-4.5 4.5-4.5 2.6-.1 4.6 1.9 4.6 4.4z"/>
<path d="M115.9 52.9c-2.5 0-4.6-2.1-4.5-4.6s2.1-4.5 4.7-4.4c2.5 0 4.4 2 4.4 4.5-.1 2.6-2.1 4.6-4.6 4.5z"/>
<path d="M88.9 115.8c0-2.5 2-4.5 4.4-4.5 2.5 0 4.6 2.1 4.6 4.5s-2 4.5-4.5 4.5c-2.4.1-4.4-1.9-4.5-4.5z"/>
</g>
</svg>