<svg xmlns="http://www.w3.org/2000/svg" preserveAspectRatio="xMidYMid meet" data-bbox="11.197 11.2 178.003 178" viewBox="11.197 11.2 178.003 178" height="200" width="200" data-type="shape" role="presentation" aria-hidden="true">
<g>
<path d="M100.2 189.2c-49.1.1-89.4-40.1-89-89.8.4-48.6 40-88.3 89.3-88.2 49.1.1 88.8 40 88.7 89.3 0 49-39.9 88.7-89 88.7zm61.9-36.7l-.7-.5c0-.6-.2-1.3.1-1.7.2-.3 1-.1 1.5-.3.3-.1.6-.3.8-.5 11.3-14.7 16.8-31.3 16.9-49.7 0-5.6-.6-11.2-1.8-16.6-4-17.8-12.9-32.7-26.9-44.5-15.5-13-33.5-19.3-53.8-18.8-4.7.1-9.5.6-14.1 1.5-17.9 3.7-33 12.4-44.8 26.3-16.7 19.7-22.7 42.5-18 67.8 3.5 18.7 12.8 34.3 27.5 46.4 18.2 15 39.1 20.9 62.5 18 10.5-1.3 20.4-4.8 29.5-10.2 3.6-2.2 7.1-4.7 10.6-7.1l-.5-.3c.1-.6-.1-1.5.3-1.7.4-.3 1.2-.1 1.8-.1l.2.5 8.9-8.5z"/>
<path d="M132.3 56.2c-.7.5-1.1 1.1-1.4 1.1-.4-.1-.8-.6-1.2-.9.4-.4.7-.9 1.1-1 .3-.2.8.3 1.5.8z"/>
<path d="M120.3 131.4c-.5-.7-1.1-1.1-1.1-1.5.1-.4.7-.8 1-1.2.3.4.9.7 1 1.1.1.4-.4.9-.9 1.6z"/>
<path d="M78.3 128.3c.5.7 1 1.1 1 1.5 0 .4-.6.7-.9 1.1-.4-.4-1-.7-1.1-1.1-.1-.3.4-.8 1-1.5z"/>
<path d="M46.7 117.8c.5.7 1.1 1.2 1 1.5-.1.4-.7.8-1.1 1.2-.3-.4-.9-.8-1-1.2 0-.4.6-.8 1.1-1.5z"/>
<path d="M132 98.6c-.4.2-.8.6-1.3.7-.7.1-1.2-.5-1-1.1.1-.4.7-.9 1.1-.9.4 0 .8.6 1.2.9v.4z"/>
<path d="M99.3 65.2c.5.7 1 1.2 1 1.5-.1.4-.6.7-1 1.1-.4-.4-.9-.7-1-1.2-.1-.2.5-.7 1-1.4z"/>
<path d="M162.3 68.3c-.5-.7-1-1.1-1-1.5 0-.4.7-1.1 1-1 .4.1 1 .6 1.1 1.1 0 .3-.6.7-1.1 1.4z"/>
<path d="M47.9 77.6c-.5.3-.9.8-1.3.7-.4 0-.9-.7-.9-1.1 0-.4.6-1 1-1s.9.5 1.3.8c0 .1-.1.6-.1.6z"/>
<path d="M132.3 77.3c-.7.5-1.1 1-1.5 1-.4-.1-.7-.6-1.1-1 .4-.4.7-1 1.1-1.1.4 0 .8.6 1.5 1.1z"/>
<path d="M58.7 87.9c-.7.4-1.2.9-1.6.8-.4-.1-.7-.7-1-1 .4-.4.8-.9 1.2-1 .4 0 .8.6 1.4 1.2z"/>
<path d="M100.8 87.9c-.7.4-1.2.9-1.6.8-.4-.1-.7-.7-1-1 .4-.4.8-.9 1.2-1 .3 0 .7.6 1.4 1.2z"/>
<path d="M162.4 86.3c.5.7 1.1 1.2 1 1.5-.1.4-.7.9-1.1 1-.3 0-.9-.7-.9-1-.1-.5.5-.9 1-1.5z"/>
<path d="M68 118.1c.3.4.8.9.8 1.3s-.6.7-1 1.1c-.4-.4-.9-.7-1.1-1.1-.1-.3.5-.8.7-1.2l.6-.1z"/>
<path d="M110 118.1c.3.4.8.9.8 1.3s-.6.7-1 1.1c-.4-.4-.9-.7-1.1-1.1-.1-.3.5-.8.7-1.2.1-.1.6-.1.6-.1z"/>
<path d="M142.8 129.9c-.7.5-1.1.9-1.5 1-.7.1-1.2-.5-1-1.1.1-.4.7-.9 1.1-.9.4-.1.8.5 1.4 1z"/>
<path d="M162.4 128.3c.5.7 1.1 1.2 1 1.5-.1.4-.7.8-1.1 1.1-.3-.4-.9-.7-.9-1.1-.1-.4.4-.8 1-1.5z"/>
<path d="M67.7 138.8c.5.7 1 1.1 1 1.5.1.7-.4 1.2-1.1 1-.4-.1-.9-.7-1-1 .1-.4.6-.8 1.1-1.5z"/>
<path d="M109.7 141.9c-.5-.7-1-1.2-1-1.5.1-.4.6-.7 1-1.1.4.4.9.7 1 1.2.1.3-.5.7-1 1.4z"/>
<path d="M78.2 170.3c.5.7 1.1 1.1 1 1.5 0 .4-.6.8-.9 1.2-.4-.4-1-.7-1.1-1.1-.1-.4.5-.8 1-1.6z"/>
<path d="M121.8 171.9c-.7.5-1.1 1-1.5 1-.4-.1-.7-.6-1.1-1 .4-.4.7-1 1.2-1.1.2 0 .7.6 1.4 1.1z"/>
<path d="M57.2 65.2c.5.7 1.1 1.2 1 1.5-.1.4-.7.8-1 1.2-.3-.4-.9-.7-1-1.1 0-.4.5-.8 1-1.6z"/>
<path d="M99.2 23.2c.5.7 1.1 1.1 1.1 1.4-.1.4-.7.8-1 1.2-.4-.4-.9-.7-1-1.1-.1-.3.4-.7.9-1.5z"/>
<path d="M46.7 54.7c.5.8 1 1.2 1 1.6 0 .4-.7 1-1 1-.4-.1-.9-.6-1-1.1-.1-.3.5-.8 1-1.5z"/>
<path d="M25.7 99.8c-.5-.7-1.1-1.1-1.1-1.4.1-.4.7-.8 1-1.2.3.4.9.7 1 1.1.1.4-.4.8-.9 1.5z"/>
<path d="M46.8 96.7c.5.8 1 1.3.9 1.7 0 .3-.6.8-1.1.9-.7.1-1.1-.4-1-1.1.2-.4.6-.8 1.2-1.5z"/>
<path d="M46.4 141.6c-.3-.4-.8-.9-.7-1.2.1-.4.7-.7 1.1-1.1.3.4.9.7 1 1.1 0 .4-.5.8-.8 1.2h-.6z"/>
<path d="M88.7 99.8c-.5-.7-1-1.2-.9-1.5 0-.4.6-.7.9-1.1.4.4.9.7 1 1.1.1.4-.5.8-1 1.5z"/>
<path d="M142.8 45.7c-.7.5-1.2 1.1-1.5 1-.4-.1-.7-.7-1.1-1.1.4-.3.7-.9 1.1-1 .4.1.8.6 1.5 1.1z"/>
<path d="M57.2 44.2c.5.7 1.1 1.2 1 1.5-.1.4-.7.7-1.1 1.1-.3-.4-.9-.7-1-1.1.1-.4.6-.8 1.1-1.5z"/>
<path d="M37.7 108.8c-.7.5-1 1-1.5 1.1-.7.1-1.2-.4-1.1-1.1.1-.4.6-1 1-1s.9.5 1.6 1z"/>
<path d="M150.3 119.4c.7-.5 1.1-1.1 1.4-1 .4.1.8.6 1.2 1-.4.4-.7 1-1.1 1.1-.3 0-.8-.6-1.5-1.1z"/>
<path d="M78.3 110.3c-.5-.7-1.1-1.1-1.1-1.4.1-.4.6-.8 1-1.2.4.3 1 .7 1 1.1.1.4-.4.8-.9 1.5z"/>
<path d="M132 119.6c-.4.3-.9.8-1.3.8s-.9-.6-1-1c-.2-.7.4-1.2 1.1-1 .4.1.8.5 1.2.8v.4z"/>
<path d="M120.3 110.3c-.5-.7-1.1-1.1-1.1-1.4.1-.4.6-.8 1-1.2.4.3 1 .7 1 1.1.1.4-.4.8-.9 1.5z"/>
<path d="M142.8 108.8c-.7.5-1.2 1.1-1.5 1-.4-.1-.7-.7-1.1-1.1.4-.3.7-.9 1.1-.9.4 0 .8.5 1.5 1z"/>
<path d="M163.9 108.8c-.7.5-1.2 1.1-1.5 1-.4-.1-.7-.7-1.1-1.1.4-.3.7-.9 1.1-.9.4 0 .8.5 1.5 1z"/>
<path d="M78.2 47.3c-.5-.7-1.1-1.2-1-1.5.1-.4.7-.8 1.1-1.1.3.4.9.7 1 1.1 0 .3-.6.8-1.1 1.5z"/>
<path d="M121.8 45.8c-.7.5-1.2 1-1.5.9-.4 0-.7-.6-1.1-1 .4-.4.7-1 1.2-1 .2 0 .7.6 1.4 1.1z"/>
<path d="M100.8 45.7c-.7.5-1.1 1.1-1.5 1-.4-.1-.8-.7-1.2-1 .4-.3.7-.9 1.1-1 .4 0 .9.5 1.6 1z"/>
<path d="M132.4 140.3c-.8.5-1.2 1.1-1.5 1-.4-.1-1-.6-1.1-1-.1-.3.6-1 .9-1 .4 0 .9.5 1.7 1z"/>
<path d="M153.4 140.3c-.7.5-1.1 1-1.5 1-.4 0-.7-.6-1.1-.9.3-.4.6-1 1.1-1.1.3 0 .7.5 1.5 1z"/>
<path d="M90.2 56.3c-.7.5-1.2 1-1.5 1-.4-.1-.7-.7-1.1-1.1.4-.3.7-.9 1.1-.9.5-.1.9.5 1.5 1z"/>
<path d="M132.3 161.4c-.7.5-1.2 1.1-1.5 1-.4-.1-.8-.7-1.1-1.1.4-.3.7-.9 1.1-1 .4 0 .8.6 1.5 1.1z"/>
<path d="M79.8 150.9c-.7.5-1.1.9-1.5 1-.7.1-1.2-.4-1-1.1.1-.4.7-.9 1.1-1 .2 0 .7.6 1.4 1.1z"/>
<path d="M25.7 78.8c-.5-.7-1.1-1.1-1.1-1.5.1-.4.7-.8 1-1.2.3.4.9.7 1 1.1.1.4-.4.9-.9 1.6z"/>
<path d="M153.3 77.3c-.7.5-1.1 1-1.5 1-.4 0-.9-.6-1-1-.2-.7.3-1.2 1-1.1.5.1.9.6 1.5 1.1z"/>
<path d="M121.8 150.9c-.7.5-1.1.9-1.5 1-.7.1-1.2-.4-1-1.1.1-.4.7-.9 1.1-1 .3 0 .7.6 1.4 1.1z"/>
<path d="M142.8 151c-.7.5-1.2 1-1.5.9-.4-.1-.7-.6-1.1-1 .4-.4.7-.9 1.2-1 .3-.1.8.5 1.4 1.1z"/>
<path d="M78.2 23.2c.5.7 1 1.1 1 1.5 0 .4-.6.8-.9 1.1-.4-.4-1-.7-1.1-1.1-.1-.3.5-.8 1-1.5z"/>
<path d="M100.7 171.9c-.7.5-1.2 1-1.5 1-.4 0-1-.7-1-1 .1-.4.7-1 1.1-1 .3-.1.8.5 1.4 1z"/>
<path d="M111.3 161.3c-.7.5-1.1 1.1-1.5 1.1-.4-.1-.8-.7-1.1-1 .4-.3.7-.9 1.1-.9.3-.1.8.4 1.5.8z"/>
<path d="M87.2 161.4c.7-.5 1.1-1 1.5-1 .4 0 1 .6 1 1s-.6 1-1 1c-.3 0-.8-.5-1.5-1z"/>
<path d="M67.7 162.9c-.5-.7-1-1.2-1-1.5.1-.4.7-.7 1.1-1.1.3.4.9.7.9 1.1 0 .4-.5.8-1 1.5z"/>
<path d="M57.2 131.4c-.5-.7-1-1.1-1-1.5 0-.4.6-.8.9-1.1.4.4 1 .7 1.1 1.1.1.3-.5.8-1 1.5z"/>
<path d="M100.8 150.9c-.7.5-1.1 1-1.5 1-.4 0-.8-.6-1.1-.9.4-.4.7-1 1.1-1.1.3-.1.8.5 1.5 1z"/>
<path d="M99.3 128.3c.5.7 1 1.2 1 1.6-.1.4-.7.7-1.1 1.1-.3-.4-.9-.8-.9-1.2-.1-.4.5-.8 1-1.5z"/>
<path d="M58.8 151c-.7.4-1.2.9-1.5.9-.4-.1-.7-.6-1.1-1 .4-.4.7-.9 1.2-1 .2-.1.7.5 1.4 1.1z"/>
<path d="M121.8 24.7c-.7.5-1.1 1.2-1.4 1.1-.4-.1-.8-.7-1.2-1 .4-.4.7-.9 1.1-1 .3-.1.8.4 1.5.9z"/>
<path d="M78.3 65.2c.5.7 1 1.2.9 1.5-.1.4-.6.7-1 1.1-.4-.4-.9-.7-1-1.2 0-.2.6-.7 1.1-1.4z"/>
<path d="M120.3 68.3c-.5-.7-1.1-1.1-1.1-1.5 0-.4.5-1 .9-1.1.7-.2 1.2.3 1.1 1 0 .5-.4.9-.9 1.6z"/>
<path d="M141.4 65.2c.5.7 1 1.2.9 1.6-.1.4-.6.7-1 1.1-.4-.4-.9-.8-1-1.2 0-.3.5-.8 1.1-1.5z"/>
<path d="M37.7 66.7c-.7.5-1.1 1.1-1.4 1.1-.4-.1-.8-.7-1.1-1 .3-.3.7-.9 1-1 .3-.1.8.4 1.5.9z"/>
<path d="M153.4 56.2c-.7.5-1.1 1.1-1.5 1.1-.4 0-1-.5-1.1-.9-.2-.7.2-1.2 1-1.1.4 0 .8.4 1.6.9z"/>
<path d="M67.7 75.7c.5.7 1 1.1 1 1.5 0 .4-.6.8-.9 1.1-.4-.4-1-.7-1.1-1.1-.1-.3.5-.8 1-1.5z"/>
<path d="M109.8 78.8c-.5-.7-1.1-1.2-1.1-1.5.1-.4.7-.8 1-1.2.3.4.9.7 1 1.1.1.5-.4.9-.9 1.6z"/>
<path d="M111.3 56.3c-.7.5-1.2 1.1-1.5 1-.4-.1-.7-.7-1.1-1.1.4-.3.7-.9 1.1-.9.4-.1.8.5 1.5 1z"/>
<path d="M174.3 77.3c-.7.5-1.1 1-1.5 1-.4-.1-.7-.6-1.1-1 .4-.4.7-1 1.1-1.1.4 0 .8.6 1.5 1.1z"/>
<path d="M34.6 87.8c.7-.5 1.1-1.2 1.4-1.1.4.1.8.7 1.2 1-.4.3-.7.9-1.1 1-.3.1-.7-.4-1.5-.9z"/>
<path d="M69.3 56.2c-.7.5-1.2 1.1-1.5 1-.4-.1-.8-.7-1.1-1.1.4-.3.7-.9 1.1-.9.3 0 .8.6 1.5 1z"/>
<path d="M141.3 86.2c.5.7 1 1.1 1.1 1.5.1.7-.4 1.2-1.1 1.1-.4-.1-.9-.6-1-1 0-.4.5-.9 1-1.6z"/>
<path d="M90.2 119.4c-.7.5-1.2 1.1-1.5 1-.4-.1-.9-.7-1-1.1 0-.2.7-.9 1-.9.5-.1.9.5 1.5 1z"/>
<path d="M27.2 119.3c-.7.5-1.1 1.1-1.4 1-.4-.1-.8-.7-1.1-1 .4-.4.7-.9 1.1-1 .2 0 .7.5 1.4 1z"/>
<path d="M99.2 107.3c.5.7 1.1 1.1 1 1.5 0 .4-.6.8-.9 1.1-.4-.4-1-.7-1.1-1.1-.1-.3.5-.8 1-1.5z"/>
<path d="M58.7 108.8c-.7.5-1.2 1.1-1.5 1-.4-.1-.8-.7-1.1-1.1.4-.3.7-.9 1.1-1 .4.1.8.6 1.5 1.1z"/>
<path d="M172.9 99.8c-.5-.7-1.1-1.2-1-1.5.1-.4.7-.8 1-1.1.3.4.9.7.9 1.1 0 .4-.5.8-.9 1.5z"/>
<path d="M153.4 98.4c-.7.4-1.1.8-1.6.9-.7.1-1.2-.5-1-1.1.1-.4.7-.9 1.1-.9.4 0 .8.5 1.5 1.1z"/>
<path d="M111.3 98.3c-.7.5-1.1 1-1.5 1-.4 0-.7-.6-1.1-.9.4-.4.7-1 1.1-1.1.3-.1.8.5 1.5 1z"/>
<path d="M69.3 98.2c-.7.5-1.1 1-1.5 1-.4 0-.8-.6-1.2-.9.4-.4.7-1 1.1-1.1.3 0 .8.6 1.6 1z"/>
<path d="M132.3 35.3c-.7.5-1.1 1-1.5 1-.4 0-.7-.6-1.1-1 .4-.4.7-1 1.1-1 .4-.1.8.5 1.5 1z"/>
<path d="M79.8 87.8c-.7.5-1.2 1-1.5.9-.4-.1-.7-.6-1.1-1 .4-.4.7-1 1.2-1 .2 0 .7.6 1.4 1.1z"/>
<path d="M111.2 35.2c-.7.5-1.1 1-1.5 1-.4 0-.8-.6-1.1-.9.4-.4.7-1 1.1-1.1.4-.1.8.5 1.5 1z"/>
<path d="M121.8 87.7c-.7.5-1.1 1.1-1.5 1-.4 0-.8-.6-1.2-.9.4-.4.7-1 1.1-1.1.4 0 .9.5 1.6 1z"/>
<path d="M37.7 129.9c-.7.5-1.2 1.1-1.5 1-.4-.1-.9-.7-1-1.1 0-.3.7-.9 1-.9.4-.1.8.5 1.5 1z"/>
<path d="M174.3 119.4c-.7.5-1.2 1.1-1.5 1-.4-.1-.7-.7-1.1-1.1.4-.3.7-.9 1.1-.9.4-.1.8.4 1.5 1z"/>
<path d="M90.2 140.4c-.7.5-1.1 1-1.5 1-.4 0-1.1-.7-1-.9.1-.4.6-1 1-1.1.4-.1.8.5 1.5 1z"/>
<path d="M69.2 35.3c-.7.5-1.2 1-1.5.9-.4-.1-.7-.6-1.1-1 .4-.4.7-.9 1.2-1 .3 0 .8.6 1.4 1.1z"/>
<path d="M88.8 75.7c.5.7 1 1.2.9 1.5-.1.4-.7.7-1.1 1.1-.3-.4-.9-.8-.9-1.2 0-.3.6-.7 1.1-1.4z"/>
<path d="M88.8 33.7c.5.7 1 1.2 1 1.6 0 .4-.7.7-1 1.1-.3-.4-.9-.7-1-1.1-.1-.5.5-.9 1-1.6z"/>
</g>
</svg>