<svg xmlns="http://www.w3.org/2000/svg" preserveAspectRatio="xMidYMid meet" data-bbox="10.997 11 178.003 178" viewBox="10.997 11 178.003 178" height="200" width="200" data-type="shape" role="presentation" aria-hidden="true">
<g>
<path d="M100 11c49.2 0 89 39.8 89 89.1 0 49.2-39.9 89-89.2 88.9-49.1 0-89.2-40.2-88.8-89.9.5-48.5 40-88.2 89-88.1zM21.9 81.3h-.4c-.5 3.7-1.1 7.4-1.6 11.1-.9 7.3-.4 14.5.8 21.7 2.3 12.9 7.6 24.5 15.5 35 3.2 4.2 6.8 8 10.7 11.4.4.4 1 .7 1.5.9 1.8.6 3.1 1.6 4.1 3.2.3.5.8 1 1.3 1.4 11.9 8.3 25 13.1 39.4 14.2.6.1 1.4-.1 2-.5 2.5-1.4 5.1-1.5 7.5 0 1 .6 1.9.8 2.9.6 2.9-.4 5.9-.6 8.8-1.2 10.7-1.9 20.5-5.9 29.6-11.8.4-.2.7-.7.8-1.1 1.1-3.3 3.4-5 6.8-5.2.4 0 .9-.1 1.2-.4 3-3 6-6 8.9-9.1.3-.3.4-.8.4-1.2.1-3.1 1.8-5.4 4.8-6.6.4-.2.9-.5 1.1-.8 7.4-11.7 11.5-24.4 12.4-38.2.1-1.7.1-3.4-.4-5.2-.4-1.2.1-2.7.2-4.1 0-.5.3-.9.2-1.4-.5-3.6-.7-7.3-1.6-10.9-6.8-29.1-24.4-48.8-52.3-59.4-1.7-.6-3.4-1.1-5.4-1.7 3.6 4.1 3.5 8.7-.1 11.4-3.4 2.5-8.1 1.6-10.3-2-1.2-2-1.3-4.2-.5-6.3.9-2.2 2.6-3.5 5.1-4.3-10.6-2-20.9-1.9-31.4.2 4.4 2.5 5.9 6.4 3.9 10.1-1.8 3.4-5.9 4.8-9.4 3.1-1.7-.8-2.9-2.1-3.5-3.9-.9-2.6-.3-5 1.4-7.3-27.6 8.3-47 31.3-53 53.2 2.9-2.9 6-3.6 9-2.1 2.7 1.4 4.3 4.5 3.8 7.4-.5 3.2-2.9 5.6-6.2 5.9-1.3.1-2.8-.2-4-.8-2.5-.9-3.5-3-4-5.3z"/>
<path d="M109.5 98.1c0-4 3-7 7.1-7 3.9 0 7 3.1 7.1 6.9 0 3.9-3.1 7.1-7.1 7.1-3.9.1-7.1-3.1-7.1-7z"/>
<path d="M134.1 73.5c3.9 0 7.1 3.2 7.1 7.1 0 3.9-3.1 7-7 7.1-3.9.1-7.1-3.1-7.1-7 0-4.1 3-7.2 7-7.2z"/>
<path d="M64 73.5c3.9 0 7.1 3.2 7.1 7.1 0 3.9-3.3 7.1-7.2 7-3.9 0-7-3.2-7-7.1.1-3.9 3.2-7 7.1-7z"/>
<path d="M109.5 133c0-3.9 3.1-7 7-7s7.1 3.2 7.1 7.1c0 3.9-3.3 7.1-7.1 7.1-3.9-.1-7-3.2-7-7.2z"/>
<path d="M57 45.5c0-4 3.1-7 7.1-7 3.9 0 7 3.2 7 7.1 0 3.9-3.3 7.1-7.2 7-3.9-.1-7-3.2-6.9-7.1z"/>
<path d="M134.1 38.5c3.9 0 7 3.1 7 7s-3.2 7.1-7.1 7.1c-3.9 0-7-3.1-7-7 .1-4.1 3.2-7.2 7.1-7.1z"/>
<path d="M162.1 80.4c0-3.9 3.2-7 7-7 3.9 0 7 3.2 7 7.1 0 3.9-3.2 7.1-7.1 7-3.8 0-6.9-3.1-6.9-7.1z"/>
<path d="M99 38.5c3.9 0 7 3.1 7 7s-3.1 7.1-6.9 7.1H99c-4 0-7-3.1-7-7.1 0-4 3.1-7 7-7z"/>
<path d="M116.6 56c3.9 0 7 3.1 7 7s-3.3 7.1-7.1 7.1c-4-.1-7-3.2-7-7.2.1-3.9 3.1-6.9 7.1-6.9z"/>
<path d="M92 80.4c0-3.9 3.1-7 7-7s7 3.2 7 7.1c0 3.9-3.2 7.1-7.1 7-3.8.1-6.9-3.1-6.9-7.1z"/>
<path d="M116.6 175.1c-4 0-7-3-7.1-6.9 0-4.1 3-7.2 7.1-7.1 3.9 0 7.1 3.2 7.1 7.1-.1 3.8-3.2 6.9-7.1 6.9z"/>
<path d="M29 108.5c3.9 0 7 3.2 7 7.1 0 3.8-3.2 7-7 7-3.9 0-7.1-3.2-7.1-7.1 0-3.8 3.2-7 7.1-7z"/>
<path d="M57 115.6c0-3.9 3.1-7 7-7s7.2 3.2 7.1 7.1c0 3.8-3.2 7-7 7.1-4-.1-7.1-3.3-7.1-7.2z"/>
<path d="M134.1 108.5c3.9 0 7 3.2 7.1 7 0 3.9-3.2 7.1-7.1 7.1-3.9 0-7-3.2-7-7.2 0-3.8 3.1-6.9 7-6.9z"/>
<path d="M99 108.5c3.9 0 7 3.1 7.1 7 0 3.9-3.1 7.1-7 7.2-3.8 0-7-3.1-7.1-6.9 0-4.1 3-7.2 7-7.3z"/>
<path d="M169.2 108.5c3.9 0 7 3.1 7 7s-3.2 7.1-7.1 7.1c-3.9 0-7-3.2-7-7.2 0-3.8 3.2-6.9 7.1-6.9z"/>
<path d="M81.6 91c3.9 0 7 3.2 7 7s-3.2 7-7.1 7c-3.9 0-7.1-3.2-7.1-7.1.1-3.9 3.2-6.9 7.2-6.9z"/>
<path d="M144.6 98c0-4 3.1-7 7.1-7 3.9 0 7 3.2 7 7s-3.2 7-7 7.1c-3.9 0-7.1-3.1-7.1-7.1z"/>
<path d="M92 150.5c0-3.9 3.2-7 7.1-6.9 4 0 7 3.2 7 7.1 0 3.8-3.3 7.1-7.1 7-4-.1-7-3.2-7-7.2z"/>
<path d="M134.1 143.6c3.9 0 7.1 3.2 7.1 7.1-.1 3.8-3.3 7-7.1 7-3.9 0-7.1-3.2-7-7.1 0-4 3.1-7 7-7z"/>
<path d="M74.5 133.1c0-4 3.1-7.1 7.1-7.1 3.9 0 7 3.2 7.1 7 0 3.9-3.3 7.2-7.1 7.1-4 0-7.1-3.1-7.1-7z"/>
<path d="M63.8 143.6c3.9-.1 7.2 3 7.3 6.9.1 3.8-3.1 7.1-7 7.2-3.8.1-7-3.1-7.1-6.9-.1-4 2.9-7.1 6.8-7.2z"/>
<path d="M151.6 126c3.9 0 7.2 3.2 7.1 7 0 3.8-3.2 7-7 7.1-3.8.1-7.1-3.1-7.1-7s3-7 7-7.1z"/>
<path d="M74.5 63c0-3.9 3.1-7 6.9-7 4 0 7.1 3.1 7.2 7 0 3.8-3.2 7.1-7.1 7.1-3.9-.1-7-3.2-7-7.1z"/>
<path d="M39.5 98.1c0-3.9 3.1-7 7-7 4 0 7.1 3.1 7.1 7s-3.2 7.1-7.1 7.1c-3.9-.1-7-3.3-7-7.1z"/>
<path d="M151.6 56c3.9 0 7 3.1 7.1 7 0 3.8-3.2 7.1-7.1 7.1-3.9 0-7-3.2-7-7.1 0-4 3.1-7 7-7z"/>
<path d="M81.5 175.1c-4 0-7.1-3.1-7-7.1 0-3.9 3.1-7 7-7s7.1 3.2 7.1 7.1c0 4-3.2 7-7.1 7z"/>
<path d="M39.5 133.1c0-3.9 3.1-7 7-7s7.1 3.2 7.1 7-3.2 7-7 7.1c-3.9 0-7.1-3.2-7.1-7.1z"/>
<path d="M39.5 63c0-3.9 3.2-7 7.1-7 3.8 0 7 3.2 7 7s-3.2 7-7 7c-4 .1-7.2-3.1-7.1-7z"/>
</g>
</svg>