<svg xmlns="http://www.w3.org/2000/svg" width="40" height="40" viewBox="0 0 40 40">
    <path data-name="패스 971" d="M40 20A20 20 0 1 1 20 0a20 20 0 0 1 20 20"/>
    <g data-name="그룹 908">
        <path data-name="패스 967" d="M25.694 20.674a3.7 3.7 0 0 1 1.855-3.12 4.092 4.092 0 0 0-3.141-1.631c-1.341-.129-2.615.754-3.292.754s-1.729-.733-2.838-.712a4.24 4.24 0 0 0-3.558 2.056c-1.516 2.511-.389 6.234 1.09 8.27.721 1 1.581 2.117 2.711 2.077 1.091-.04 1.5-.672 2.819-.672s1.686.672 2.839.655c1.172-.023 1.915-1.02 2.63-2.017A8.968 8.968 0 0 0 28 24a3.649 3.649 0 0 1-2.307-3.323" style="fill:#fff" transform="translate(-1 -.176)"/>
        <path data-name="패스 968" d="M24.888 14.312a4.306 4.306 0 0 0 1.023-3.136 4.4 4.4 0 0 0-2.892 1.487 4.117 4.117 0 0 0-1.044 3.037 3.644 3.644 0 0 0 2.913-1.393" transform="translate(-2.323 -.176)" style="fill:#fff"/>
    </g>
</svg>
